<?xml version="1.0" standalone="no"?>
<!DOCTYPE svg PUBLIC "-//W3C//DTD SVG 20010904//EN"
 "http://www.w3.org/TR/2001/REC-SVG-20010904/DTD/svg10.dtd">
<svg version="1.0" xmlns="http://www.w3.org/2000/svg"
 width="16.000000pt" height="16.000000pt" viewBox="0 0 16.000000 16.000000"
 preserveAspectRatio="xMidYMid meet">
<metadata>
Created by potrace 1.11, written by Peter Selinger 2001-2013
</metadata>
<g transform="translate(0.000000,16.000000) scale(0.002286,-0.002286)"
fill="#000000" stroke="none">
<path d="M1110 5723 c-42 -6 -143 -45 -180 -68 -98 -62 -171 -168 -207 -300
-9 -33 -10 -3635 -1 -3695 13 -83 67 -186 129 -248 62 -62 161 -116 240 -131
71 -13 4743 -14 4814 -1 78 15 186 74 245 132 58 59 114 165 127 243 6 28 9
840 8 1865 -1 1456 -3 1824 -14 1860 -43 151 -152 266 -307 326 -47 18 -125
19 -2439 20 -1314 1 -2401 -1 -2415 -3z m4757 -381 c13 -7 28 -22 35 -35 9
-17 12 -271 12 -1060 1 -572 -2 -1041 -5 -1043 -3 -2 -323 313 -710 701 l-704
704 -883 -885 c-487 -487 -886 -884 -888 -882 -2 2 -127 126 -277 276 l-273
272 -541 -540 c-297 -297 -542 -540 -544 -540 -2 0 -4 669 -3 1487 0 1185 3
1493 13 1511 7 13 26 29 41 36 43 18 4695 16 4727 -2z"/>
</g>
</svg>
